<svg width="390" height="67" viewBox="0 0 390 67" fill="none" xmlns="http://www.w3.org/2000/svg">
<path d="M-1 66.9996V67.9996L-6.1622e-06 67.9996C114.427 68.0003 228.854 68 343.281 67.9997L390 67.9996H391V66.9996V20.5714C391 15.5762 388.322 10.6848 384.43 7.07077C380.533 3.45222 375.3 1.00002 370 1.00002C357.506 0.999977 339.779 1.00002 321.629 1.00005C298.433 1.00011 274.544 1.00016 260 1.00005C251.075 1.00005 244.339 3.13518 238.794 6.3587C233.273 9.56863 228.97 13.8387 224.908 18.0171C224.609 18.3244 224.312 18.6311 224.015 18.937C216.21 26.9854 208.992 34.4283 195 34.4283C181.007 34.4284 173.789 26.9853 165.984 18.9369C165.688 18.6311 165.39 18.3243 165.092 18.0171C161.029 13.8386 156.727 9.56858 151.205 6.35865C145.661 3.13513 138.924 1.00001 130 1.00005C93.139 1.00019 57.8232 1.00028 19.9998 1.00011C14.8289 1.0001 9.59707 3.45534 5.67227 7.06783C1.75188 10.6763 -1 15.5678 -1 20.5714V66.9996Z" fill="white" stroke="#F36F3F" stroke-width="2"/>
</svg>
